<svg width="140" height="58" viewBox="0 0 96 39" fill="none"
  xmlns="http://www.w3.org/2000/svg">
  <path d="M1.67603 4.54785L9.19321 15.2521L0 27.6958H6.859L12.5066 19.877L17.9718 27.6958H23.999L7.74447 4.54785H1.67603Z" fill="white"/>
  <path d="M45.5863 7.34517C44.4848 6.22519 43.1684 5.33689 41.7147 4.73106C38.7985 3.52312 35.5164 3.52064 32.5964 4.72363C31.1589 5.31707 29.8601 6.19918 28.7823 7.31296C27.6432 8.46144 26.7478 9.82424 26.1496 11.3221C24.9593 14.4119 24.9593 17.8289 26.1496 20.9187C26.7503 22.4104 27.6457 23.767 28.7823 24.9105C29.8713 26.0293 31.1777 26.9188 32.6214 27.5246C35.7799 28.8428 39.363 28.7202 42.4216 27.1876C44.0739 26.3638 45.5101 25.1682 46.6154 23.6976C47.4197 22.647 48.0354 21.4663 48.4351 20.2076C48.8497 18.8869 49.0558 17.5105 49.0458 16.1266C49.0608 14.4739 48.7635 12.8323 48.1678 11.2886C47.592 9.81062 46.7116 8.46639 45.5851 7.34393L45.5863 7.34517ZM41.5473 21.1814C39.5079 23.5849 35.8898 23.8934 33.4669 21.8702C33.2134 21.6584 32.9786 21.4254 32.7663 21.1739C31.5623 19.769 30.9291 17.9714 30.9891 16.1278C30.9304 14.2757 31.5636 12.4681 32.7663 11.0508C34.797 8.6448 38.4101 8.32887 40.8355 10.3433C41.094 10.5577 41.3313 10.7943 41.5486 11.0508C42.7513 12.4681 43.3807 14.2769 43.3183 16.1278C43.382 17.9726 42.7513 19.774 41.5473 21.1814Z" fill="white"/>
  <path d="M59.2942 4.54785H53.7241V27.6958H68.3887V22.7314H59.2942V4.54785Z" fill="white"/>
  <path d="M91.5709 4.54785H85.6623L79.5964 19.7147L73.5829 4.54785H68.0452L77.6718 27.6958H81.9406L91.5709 4.54785Z" fill="white"/>
  <path d="M93.9506 4.58034V4.84299H93.4348V6.17111H93.115V4.84299H92.6017V4.58034H93.9506ZM95.6828 6.17111L95.6229 5.23573C95.6179 5.11183 95.6179 4.96069 95.6104 4.78972H95.5929C95.5504 4.93095 95.5055 5.11555 95.458 5.26174L95.1683 6.14509H94.8398L94.55 5.23944C94.5201 5.11555 94.4726 4.92971 94.4376 4.78972H94.4202C94.4202 4.93591 94.4152 5.08953 94.4077 5.23573L94.3477 6.17111H94.0405L94.1579 4.58034H94.6362L94.9135 5.35714C94.9484 5.48103 94.9784 5.59625 95.0221 5.76103H95.0271C95.0696 5.61483 95.1046 5.47979 95.1395 5.36334L95.4168 4.5791H95.8751L96 6.16987H95.6803V6.17235L95.6828 6.17111Z" fill="white"/>
  <path d="M20.0913 0L14.7385 7.65278L18.0868 12.2108L26.9004 0H20.0913Z" fill="url(#paint0_linear_3635_5116)"/>
  <path d="M24.7682 31.9005H23.2037V36.9268H22.788V31.9005H21.2234V31.5075H24.7682V31.9005ZM27.7878 35.0107H24.8854C24.8854 35.5448 25.0088 35.953 25.2557 36.2352C25.5026 36.5148 25.834 36.6547 26.2497 36.6547C26.5066 36.6547 26.7334 36.5955 26.9299 36.477C27.1264 36.3586 27.2864 36.1911 27.4099 35.9744L27.75 36.1558C27.5913 36.438 27.3834 36.6534 27.1264 36.802C26.8694 36.9482 26.5747 37.0212 26.2421 37.0212C25.6979 37.0212 25.2671 36.8449 24.9496 36.4922C24.6322 36.1369 24.4735 35.6318 24.4735 34.9767C24.4735 34.3972 24.6347 33.9173 24.9572 33.5369C25.2797 33.1539 25.7042 32.9624 26.2308 32.9624C26.7221 32.9624 27.1037 33.1212 27.3758 33.4386C27.6505 33.756 27.7878 34.2184 27.7878 34.8255V35.0107ZM27.3758 34.6517C27.3733 34.2058 27.2662 33.8745 27.0546 33.6578C26.843 33.4386 26.5646 33.329 26.2194 33.329C25.8516 33.329 25.5518 33.4449 25.32 33.6767C25.0907 33.9085 24.9496 34.2335 24.8967 34.6517H27.3758ZM31.6387 36.2994C31.4825 36.5287 31.2885 36.7063 31.0567 36.8323C30.8249 36.9583 30.5466 37.0212 30.2215 37.0212C29.6799 37.0212 29.239 36.8348 28.8988 36.4619C28.5587 36.0865 28.3887 35.6053 28.3887 35.0183C28.3887 34.401 28.5675 33.9047 28.9253 33.5293C29.2856 33.1514 29.7328 32.9624 30.2669 32.9624C30.5541 32.9624 30.8124 33.0229 31.0416 33.1438C31.2734 33.2648 31.4699 33.4361 31.6312 33.6578L31.3251 33.8808C31.1714 33.6767 31.0038 33.5343 30.8224 33.4537C30.6436 33.3706 30.4533 33.329 30.2518 33.329C29.8361 33.329 29.4896 33.4814 29.2125 33.7863C28.9354 34.0911 28.7968 34.5018 28.7968 35.0183C28.7968 35.4945 28.9303 35.8862 29.1974 36.1936C29.4645 36.4985 29.8109 36.6509 30.2367 36.6509C30.4735 36.6509 30.6801 36.603 30.8564 36.5073C31.0328 36.4115 31.189 36.2654 31.3251 36.0689L31.6387 36.2994ZM35.501 36.9268H35.108V34.5799C35.108 34.1642 35.0261 33.8518 34.8623 33.6427C34.6986 33.4336 34.4529 33.329 34.1254 33.329C33.7626 33.329 33.4641 33.4613 33.2297 33.7258C32.9954 33.9878 32.8783 34.3141 32.8783 34.7046V36.9268H32.4815V31.1976H32.8783V33.6767H32.8934C33.0446 33.4373 33.2297 33.2585 33.4489 33.14C33.6706 33.0216 33.9138 32.9624 34.1783 32.9624C34.6192 32.9624 34.9493 33.0997 35.1685 33.3744C35.3902 33.6465 35.501 34.0332 35.501 34.5346V36.9268ZM39.6127 36.9268H39.2197V34.5837C39.2197 34.1655 39.1378 33.8518 38.9741 33.6427C38.8103 33.4336 38.5647 33.329 38.2371 33.329C37.8718 33.329 37.572 33.4613 37.3377 33.7258C37.1059 33.9904 36.99 34.3179 36.99 34.7084V36.9268H36.5932V33.0569H36.99V33.6842H37.0051C37.1538 33.4424 37.3364 33.2622 37.5531 33.1438C37.7723 33.0229 38.0179 32.9624 38.29 32.9624C38.7309 32.9624 39.061 33.0997 39.2802 33.3744C39.5019 33.6465 39.6127 34.0332 39.6127 34.5346V36.9268ZM42.3035 37.0212C41.7391 37.0212 41.2856 36.8386 40.943 36.4733C40.6004 36.1054 40.429 35.6204 40.429 35.0183C40.429 34.4061 40.6117 33.911 40.977 33.5331C41.3448 33.1526 41.7983 32.9624 42.3375 32.9624C42.8918 32.9624 43.3365 33.1526 43.6715 33.5331C44.0091 33.911 44.178 34.3985 44.178 34.9956C44.178 35.5902 44.0066 36.0764 43.664 36.4544C43.3213 36.8323 42.8678 37.0212 42.3035 37.0212ZM42.3186 36.6547C42.762 36.6547 43.1135 36.5035 43.373 36.2012C43.635 35.8963 43.766 35.4932 43.766 34.9918C43.766 34.498 43.6363 34.0987 43.3768 33.7938C43.1173 33.4865 42.7683 33.3328 42.3299 33.3328C41.8916 33.3328 41.5325 33.4915 41.2529 33.809C40.9757 34.1239 40.8372 34.5283 40.8372 35.0221C40.8372 35.5184 40.972 35.9152 41.2415 36.2125C41.5136 36.5073 41.8727 36.6547 42.3186 36.6547ZM45.0661 36.9268V31.1976H45.4629V36.9268H45.0661ZM48.2292 37.0212C47.6648 37.0212 47.2114 36.8386 46.8687 36.4733C46.5261 36.1054 46.3547 35.6204 46.3547 35.0183C46.3547 34.4061 46.5374 33.911 46.9027 33.5331C47.2706 33.1526 47.7241 32.9624 48.2632 32.9624C48.8175 32.9624 49.2622 33.1526 49.5973 33.5331C49.9349 33.911 50.1037 34.3985 50.1037 34.9956C50.1037 35.5902 49.9323 36.0764 49.5897 36.4544C49.2471 36.8323 48.7936 37.0212 48.2292 37.0212ZM48.2443 36.6547C48.6877 36.6547 49.0392 36.5035 49.2987 36.2012C49.5607 35.8963 49.6917 35.4932 49.6917 34.9918C49.6917 34.498 49.562 34.0987 49.3025 33.7938C49.043 33.4865 48.694 33.3328 48.2557 33.3328C47.8173 33.3328 47.4583 33.4915 47.1786 33.809C46.9015 34.1239 46.7629 34.5283 46.7629 35.0221C46.7629 35.5184 46.8977 35.9152 47.1673 36.2125C47.4394 36.5073 47.7984 36.6547 48.2443 36.6547ZM54.1587 36.8965C54.1587 37.5213 54.0126 37.9849 53.7203 38.2873C53.4306 38.5921 53.0073 38.7445 52.4505 38.7445C52.1104 38.7445 51.8043 38.6752 51.5322 38.5367C51.2601 38.4006 51.0207 38.2054 50.8141 37.9509L51.1391 37.7053C51.3205 37.9396 51.5158 38.1096 51.7249 38.2154C51.934 38.3238 52.1809 38.378 52.4656 38.378C52.8713 38.378 53.1887 38.2621 53.418 38.0303C53.6498 37.7985 53.7657 37.4206 53.7657 36.8965V36.2994H53.7505C53.5994 36.5388 53.4079 36.7189 53.1761 36.8398C52.9468 36.9608 52.6823 37.0212 52.3825 37.0212C51.8836 37.0212 51.4805 36.8436 51.1732 36.4884C50.8683 36.1331 50.7159 35.6595 50.7159 35.0674C50.7159 34.4124 50.8859 33.8984 51.2261 33.5255C51.5662 33.1501 51.9945 32.9624 52.511 32.9624C52.8007 32.9624 53.0501 33.0179 53.2593 33.1287C53.4709 33.237 53.6346 33.3907 53.7505 33.5898H53.7657V33.0569H54.1587V36.8965ZM53.7657 35.2866V34.5535C53.7657 34.2209 53.6498 33.9337 53.418 33.6918C53.1887 33.4499 52.8889 33.329 52.5185 33.329C52.1054 33.329 51.769 33.4802 51.5095 33.7825C51.2525 34.0848 51.124 34.5018 51.124 35.0334C51.124 35.5499 51.245 35.9492 51.4868 36.2314C51.7287 36.5136 52.0361 36.6547 52.4089 36.6547C52.8246 36.6547 53.1547 36.5224 53.3991 36.2578C53.6435 35.9933 53.7657 35.6696 53.7657 35.2866ZM58.3838 33.0569L56.4564 37.8338C56.338 38.1285 56.1919 38.354 56.018 38.5102C55.8442 38.6664 55.6326 38.7445 55.3831 38.7445C55.2773 38.7445 55.1765 38.7332 55.0808 38.7105C54.9851 38.6904 54.8918 38.6526 54.8011 38.5971L54.975 38.2532C55.038 38.291 55.1022 38.32 55.1677 38.3402C55.2357 38.3603 55.305 38.3704 55.3756 38.3704C55.5217 38.3704 55.6515 38.3225 55.7648 38.2268C55.8807 38.131 55.9853 37.9723 56.0785 37.7506L56.4337 36.9003L54.9599 33.0569H55.3945L56.5471 36.1105C56.5698 36.1709 56.5874 36.2213 56.6 36.2616C56.6126 36.2994 56.624 36.3385 56.634 36.3788H56.6529C56.6655 36.3385 56.6794 36.2994 56.6945 36.2616C56.7096 36.2213 56.7273 36.1772 56.7474 36.1294L57.9605 33.0569H58.3838ZM60.7344 36.0538L61.1123 35.8384C61.266 36.1205 61.4474 36.3221 61.6565 36.443C61.8682 36.564 62.1188 36.6244 62.4086 36.6244C62.7689 36.6244 63.0611 36.5299 63.2853 36.341C63.5121 36.152 63.6255 35.8812 63.6255 35.5285C63.6255 35.2261 63.5348 34.983 63.3534 34.7991C63.172 34.6127 62.8822 34.4602 62.4842 34.3418C61.9828 34.1932 61.6124 33.9992 61.3731 33.7598C61.1363 33.518 61.0178 33.2119 61.0178 32.8415C61.0178 32.4107 61.1615 32.0655 61.4487 31.806C61.7359 31.5465 62.0999 31.4168 62.5408 31.4168C62.8986 31.4168 63.2022 31.4986 63.4516 31.6624C63.701 31.8262 63.89 32.0277 64.0185 32.2671L63.6444 32.4674C63.5486 32.2734 63.4038 32.1159 63.2098 31.995C63.0158 31.8715 62.7915 31.8098 62.5371 31.8098C62.2196 31.8098 61.9563 31.898 61.7472 32.0743C61.5406 32.2507 61.4373 32.49 61.4373 32.7924C61.4373 33.0695 61.528 33.2988 61.7094 33.4802C61.8908 33.6591 62.1881 33.8115 62.6013 33.9374C63.1128 34.0937 63.4819 34.2939 63.7086 34.5383C63.9379 34.7802 64.0525 35.0951 64.0525 35.4831C64.0525 35.9391 63.9026 36.3095 63.6028 36.5942C63.3055 36.8789 62.9087 37.0212 62.4124 37.0212C62.0319 37.0212 61.7019 36.9381 61.4222 36.7718C61.1426 36.6055 60.9133 36.3662 60.7344 36.0538ZM66.6488 37.0212C66.0844 37.0212 65.6309 36.8386 65.2883 36.4733C64.9456 36.1054 64.7743 35.6204 64.7743 35.0183C64.7743 34.4061 64.957 33.911 65.3223 33.5331C65.6901 33.1526 66.1436 32.9624 66.6828 32.9624C67.2371 32.9624 67.6818 33.1526 68.0168 33.5331C68.3544 33.911 68.5232 34.3985 68.5232 34.9956C68.5232 35.5902 68.3519 36.0764 68.0093 36.4544C67.6666 36.8323 67.2131 37.0212 66.6488 37.0212ZM66.6639 36.6547C67.1073 36.6547 67.4588 36.5035 67.7183 36.2012C67.9803 35.8963 68.1113 35.4932 68.1113 34.9918C68.1113 34.498 67.9816 34.0987 67.7221 33.7938C67.4626 33.4865 67.1136 33.3328 66.6752 33.3328C66.2369 33.3328 65.8778 33.4915 65.5982 33.809C65.321 34.1239 65.1825 34.5283 65.1825 35.0221C65.1825 35.5184 65.3173 35.9152 65.5868 36.2125C65.8589 36.5073 66.218 36.6547 66.6639 36.6547ZM69.4113 36.9268V31.1976H69.8082V36.9268H69.4113ZM73.9161 36.923H73.5193V36.2956H73.5042C73.3606 36.535 73.1792 36.7151 72.96 36.8361C72.7408 36.957 72.509 37.0175 72.2646 37.0175C71.8237 37.0175 71.4848 36.8839 71.248 36.6169C71.0137 36.3498 70.8966 35.9631 70.8966 35.4567V33.0531H71.2896V35.4113C71.2896 35.8144 71.3765 36.1218 71.5503 36.3334C71.7242 36.5451 71.9774 36.6509 72.31 36.6509C72.6526 36.6509 72.9398 36.5186 73.1716 36.2541C73.4034 35.9895 73.5193 35.6633 73.5193 35.2753V33.0531H73.9161V36.923ZM76.8525 36.7265C76.7492 36.8222 76.6383 36.8915 76.5199 36.9343C76.404 36.9797 76.2667 37.0023 76.108 37.0023C75.8384 37.0023 75.6293 36.9242 75.4807 36.768C75.3345 36.6118 75.2615 36.3889 75.2615 36.0991V33.4121H74.5699V33.0569H75.2615V32.0668L75.6545 32.0025V33.0569H76.7013V33.4121H75.6545V36.0689C75.6545 36.2604 75.6973 36.4065 75.783 36.5073C75.8712 36.6055 75.9946 36.6547 76.1533 36.6547C76.2491 36.6547 76.3347 36.6395 76.4103 36.6093C76.4884 36.5766 76.5653 36.5236 76.6409 36.4506L76.8525 36.7265ZM77.7519 32.1424C77.6512 32.1424 77.5693 32.1109 77.5063 32.0479C77.4433 31.9849 77.4118 31.9043 77.4118 31.806C77.4118 31.7128 77.4433 31.6347 77.5063 31.5717C77.5693 31.5087 77.6512 31.4772 77.7519 31.4772C77.8527 31.4772 77.9346 31.5087 77.9976 31.5717C78.0606 31.6347 78.0921 31.7128 78.0921 31.806C78.0921 31.9043 78.0606 31.9849 77.9976 32.0479C77.9371 32.1109 77.8552 32.1424 77.7519 32.1424ZM77.9522 36.9268H77.5554V33.0569H77.9522V36.9268ZM80.7223 37.0212C80.158 37.0212 79.7045 36.8386 79.3619 36.4733C79.0192 36.1054 78.8479 35.6204 78.8479 35.0183C78.8479 34.4061 79.0305 33.911 79.3959 33.5331C79.7637 33.1526 80.2172 32.9624 80.7564 32.9624C81.3106 32.9624 81.7553 33.1526 82.0904 33.5331C82.428 33.911 82.5968 34.3985 82.5968 34.9956C82.5968 35.5902 82.4255 36.0764 82.0828 36.4544C81.7402 36.8323 81.2867 37.0212 80.7223 37.0212ZM80.7375 36.6547C81.1809 36.6547 81.5323 36.5035 81.7918 36.2012C82.0539 35.8963 82.1849 35.4932 82.1849 34.9918C82.1849 34.498 82.0551 34.0987 81.7956 33.7938C81.5361 33.4865 81.1872 33.3328 80.7488 33.3328C80.3104 33.3328 79.9514 33.4915 79.6717 33.809C79.3946 34.1239 79.256 34.5283 79.256 35.0221C79.256 35.5184 79.3908 35.9152 79.6604 36.2125C79.9325 36.5073 80.2915 36.6547 80.7375 36.6547ZM86.5044 36.9268H86.1114V34.5837C86.1114 34.1655 86.0295 33.8518 85.8658 33.6427C85.702 33.4336 85.4564 33.329 85.1288 33.329C84.7635 33.329 84.4637 33.4613 84.2294 33.7258C83.9976 33.9904 83.8817 34.3179 83.8817 34.7084V36.9268H83.4849V33.0569H83.8817V33.6842H83.8968C84.0455 33.4424 84.2281 33.2622 84.4448 33.1438C84.664 33.0229 84.9096 32.9624 85.1817 32.9624C85.6226 32.9624 85.9527 33.0997 86.1719 33.3744C86.3936 33.6465 86.5044 34.0332 86.5044 34.5346V36.9268ZM87.3925 36.2465L87.7478 36.0727C87.8385 36.2641 87.9682 36.4103 88.137 36.5111C88.3084 36.6118 88.515 36.6622 88.7568 36.6622C89.0088 36.6622 89.2103 36.5917 89.3615 36.4506C89.5152 36.3095 89.592 36.1306 89.592 35.9139C89.592 35.725 89.5328 35.57 89.4144 35.4491C89.2985 35.3257 89.0566 35.2047 88.6888 35.0863C88.2756 34.9578 87.9909 34.8104 87.8347 34.6442C87.6785 34.4753 87.6004 34.2688 87.6004 34.0244C87.6004 33.6943 87.7138 33.4348 87.9405 33.2459C88.1698 33.0569 88.4557 32.9624 88.7984 32.9624C89.0352 32.9624 89.2569 33.0153 89.4635 33.1212C89.6701 33.2244 89.8351 33.3756 89.9586 33.5747L89.6298 33.7523C89.5366 33.6087 89.4131 33.5003 89.2594 33.4273C89.1083 33.3542 88.9496 33.3177 88.7833 33.3177C88.5389 33.3177 88.3449 33.3769 88.2013 33.4953C88.0577 33.6137 87.9859 33.7749 87.9859 33.979C87.9859 34.1503 88.0413 34.2889 88.1522 34.3947C88.2655 34.5005 88.486 34.6051 88.8135 34.7084C89.2393 34.8419 89.5416 34.9918 89.7205 35.1581C89.8994 35.3244 89.9888 35.565 89.9888 35.8799C89.9888 36.2226 89.8704 36.4985 89.6336 36.7076C89.3993 36.9167 89.1058 37.0212 88.753 37.0212C88.4255 37.0212 88.1459 36.9494 87.9141 36.8058C87.6823 36.6597 87.5084 36.4733 87.3925 36.2465Z" fill="white"/>
  <defs>
    <linearGradient id="paint0_linear_3635_5116" x1="16.1273" y1="10.5729" x2="23.6395" y2="-0.403309" gradientUnits="userSpaceOnUse">
      <stop stop-color="#028090"/>
      <stop offset="0.07" stop-color="#087C91"/>
      <stop offset="0.17" stop-color="#1B7295"/>
      <stop offset="0.29" stop-color="#3A619B"/>
      <stop offset="0.43" stop-color="#664AA4"/>
      <stop offset="0.57" stop-color="#9C2DAF"/>
      <stop offset="0.6" stop-color="#A927B2"/>
      <stop offset="0.66" stop-color="#AD29A9"/>
      <stop offset="0.75" stop-color="#BB3193"/>
      <stop offset="0.86" stop-color="#D13F6E"/>
      <stop offset="0.99" stop-color="#F0513B"/>
      <stop offset="1" stop-color="#F25239"/>
    </linearGradient>
  </defs>
</svg>
