<svg width="1251" height="516" viewBox="0 0 1251 516" fill="none" xmlns="http://www.w3.org/2000/svg">
<path d="M22.6432 60.7422L120.46 202.87L0.833923 368.094H90.0863L163.575 264.278L234.691 368.094H313.12L101.608 60.7422H22.6432Z" fill="#212922"/>
<path d="M594.023 97.8824C579.689 83.0116 562.56 71.217 543.644 63.1729C505.697 47.1342 462.988 47.1013 424.993 63.0742C406.287 70.9538 389.386 82.6662 375.361 97.4547C360.54 112.704 348.888 130.799 341.103 150.687C325.616 191.713 325.616 237.082 341.103 278.109C348.92 297.914 360.572 315.927 375.361 331.11C389.532 345.965 406.531 357.776 425.318 365.82C466.417 383.323 513.042 381.694 552.842 361.345C574.343 350.406 593.032 334.532 607.414 315.006C617.88 301.056 625.892 285.379 631.092 268.666C636.488 251.131 639.169 232.855 639.039 214.48C639.234 192.536 635.366 170.739 627.614 150.243C620.123 130.618 608.665 112.77 594.007 97.866L594.023 97.8824ZM541.466 281.596C514.928 313.509 467.847 317.605 436.32 290.742C433.021 287.929 429.965 284.837 427.203 281.497C411.536 262.843 403.297 238.974 404.077 214.496C403.313 189.904 411.553 165.903 427.203 147.084C453.627 115.138 500.643 110.944 532.203 137.691C535.567 140.537 538.655 143.679 541.482 147.084C557.132 165.903 565.323 189.92 564.51 214.496C565.339 238.99 557.132 262.909 541.466 281.596Z" fill="#212922"/>
<path d="M772.397 60.7422H699.916V368.094H890.739V302.179H772.397V60.7422Z" fill="#212922"/>
<path d="M1191.73 60.7422H1114.85L1035.92 262.123L957.665 60.7422H885.607L1010.87 368.094H1066.42L1191.73 60.7422Z" fill="#212922"/>
<path d="M1223.36 61.1708V64.6581H1216.65V82.2925H1212.49V64.6581H1205.81V61.1708H1223.36ZM1245.9 82.2925L1245.12 69.8728C1245.05 68.2278 1245.05 66.2209 1244.96 63.9508H1244.73C1244.18 65.8261 1243.59 68.2771 1242.97 70.2182L1239.2 81.9471H1234.93L1231.16 69.9221C1230.77 68.2771 1230.15 65.8096 1229.7 63.9508H1229.47C1229.47 65.8919 1229.4 67.9317 1229.31 69.8728L1228.53 82.2925H1224.53L1226.06 61.1708H1232.28L1235.89 71.4849C1236.34 73.1299 1236.73 74.6597 1237.3 76.8476H1237.37C1237.92 74.9065 1238.38 73.1134 1238.83 71.5671L1242.44 61.1543H1248.4L1250.03 82.2761H1245.87V82.309L1245.9 82.2925Z" fill="#212922"/>
<path d="M262.271 0.363281L192.618 101.975L236.188 162.494L350.873 0.363281H262.271Z" fill="url(#paint0_linear_3418_4632)"/>
<path d="M359.666 428.317H339.811V492.104H334.535V428.317H314.679V423.329H359.666V428.317ZM397.987 467.788H361.153C361.153 474.567 362.72 479.747 365.853 483.328C368.987 486.877 373.191 488.651 378.467 488.651C381.728 488.651 384.606 487.9 387.1 486.397C389.594 484.894 391.624 482.768 393.191 480.018L397.507 482.321C395.493 485.902 392.855 488.635 389.594 490.522C386.333 492.376 382.592 493.304 378.371 493.304C371.465 493.304 365.997 491.065 361.968 486.589C357.94 482.081 355.925 475.67 355.925 467.357C355.925 460.003 357.972 453.912 362.064 449.084C366.157 444.224 371.545 441.794 378.227 441.794C384.462 441.794 389.306 443.808 392.759 447.837C396.244 451.865 397.987 457.733 397.987 465.438V467.788ZM392.759 463.232C392.727 457.573 391.368 453.368 388.683 450.619C385.997 447.837 382.464 446.446 378.083 446.446C373.415 446.446 369.61 447.917 366.669 450.858C363.759 453.8 361.968 457.925 361.297 463.232H392.759ZM446.859 484.143C444.877 487.053 442.415 489.307 439.473 490.905C436.531 492.504 432.998 493.304 428.874 493.304C421.999 493.304 416.404 490.937 412.087 486.205C407.771 481.441 405.613 475.334 405.613 467.884C405.613 460.051 407.883 453.752 412.423 448.988C416.995 444.192 422.671 441.794 429.449 441.794C433.094 441.794 436.371 442.561 439.281 444.096C442.223 445.631 444.717 447.805 446.763 450.619L442.878 453.448C440.928 450.858 438.801 449.052 436.499 448.029C434.229 446.973 431.815 446.446 429.257 446.446C423.982 446.446 419.585 448.38 416.068 452.249C412.551 456.118 410.792 461.33 410.792 467.884C410.792 473.927 412.487 478.899 415.876 482.8C419.265 486.669 423.662 488.603 429.065 488.603C432.071 488.603 434.693 487.996 436.931 486.781C439.169 485.566 441.152 483.711 442.878 481.217L446.859 484.143ZM495.875 492.104H490.887V462.321C490.887 457.045 489.848 453.08 487.769 450.427C485.691 447.773 482.574 446.446 478.417 446.446C473.813 446.446 470.024 448.125 467.05 451.482C464.077 454.807 462.59 458.948 462.59 463.904V492.104H457.554V419.396H462.59V450.858H462.782C464.7 447.821 467.05 445.551 469.832 444.048C472.646 442.545 475.731 441.794 479.088 441.794C484.684 441.794 488.872 443.536 491.654 447.021C494.468 450.475 495.875 455.383 495.875 461.745V492.104ZM548.056 492.104H543.068V462.369C543.068 457.061 542.029 453.08 539.951 450.427C537.872 447.773 534.755 446.446 530.598 446.446C525.962 446.446 522.157 448.125 519.184 451.482C516.242 454.839 514.771 458.996 514.771 463.952V492.104H509.735V442.993H514.771V450.954H514.963C516.85 447.885 519.168 445.599 521.917 444.096C524.699 442.561 527.817 441.794 531.27 441.794C536.865 441.794 541.054 443.536 543.835 447.021C546.649 450.475 548.056 455.383 548.056 461.745V492.104ZM582.204 493.304C575.042 493.304 569.287 490.985 564.938 486.349C560.59 481.681 558.415 475.526 558.415 467.884C558.415 460.115 560.734 453.832 565.37 449.036C570.038 444.208 575.793 441.794 582.636 441.794C589.67 441.794 595.313 444.208 599.566 449.036C603.85 453.832 605.992 460.019 605.992 467.597C605.992 475.142 603.818 481.313 599.47 486.109C595.121 490.905 589.366 493.304 582.204 493.304ZM582.396 488.651C588.023 488.651 592.484 486.733 595.777 482.896C599.102 479.027 600.765 473.911 600.765 467.549C600.765 461.282 599.118 456.214 595.825 452.345C592.531 448.444 588.103 446.494 582.54 446.494C576.976 446.494 572.42 448.508 568.871 452.537C565.354 456.534 563.595 461.665 563.595 467.932C563.595 474.231 565.306 479.267 568.727 483.04C572.18 486.781 576.736 488.651 582.396 488.651ZM617.263 492.104V419.396H622.299V492.104H617.263ZM657.406 493.304C650.244 493.304 644.489 490.985 640.14 486.349C635.792 481.681 633.618 475.526 633.618 467.884C633.618 460.115 635.936 453.832 640.572 449.036C645.24 444.208 650.996 441.794 657.838 441.794C664.872 441.794 670.516 444.208 674.768 449.036C679.053 453.832 681.195 460.019 681.195 467.597C681.195 475.142 679.021 481.313 674.672 486.109C670.324 490.905 664.568 493.304 657.406 493.304ZM657.598 488.651C663.226 488.651 667.686 486.733 670.979 482.896C674.304 479.027 675.967 473.911 675.967 467.549C675.967 461.282 674.32 456.214 671.027 452.345C667.734 448.444 663.305 446.494 657.742 446.494C652.179 446.494 647.622 448.508 644.073 452.537C640.556 456.534 638.798 461.665 638.798 467.932C638.798 474.231 640.508 479.267 643.929 483.04C647.383 486.781 651.939 488.651 657.598 488.651ZM732.657 491.721C732.657 499.65 730.802 505.533 727.093 509.37C723.416 513.239 718.045 515.174 710.978 515.174C706.662 515.174 702.777 514.294 699.324 512.536C695.871 510.809 692.833 508.331 690.211 505.102L694.336 501.984C696.638 504.958 699.116 507.116 701.77 508.459C704.424 509.834 707.557 510.521 711.17 510.521C716.318 510.521 720.347 509.051 723.256 506.109C726.198 503.167 727.669 498.371 727.669 491.721V484.143H727.477C725.558 487.181 723.128 489.467 720.187 491.001C717.277 492.536 713.92 493.304 710.115 493.304C703.784 493.304 698.668 491.049 694.768 486.541C690.899 482.033 688.964 476.022 688.964 468.508C688.964 460.195 691.123 453.672 695.439 448.94C699.756 444.176 705.191 441.794 711.746 441.794C715.423 441.794 718.588 442.497 721.242 443.904C723.928 445.279 726.006 447.229 727.477 449.755H727.669V442.993H732.657V491.721ZM727.669 471.29V461.985C727.669 457.765 726.198 454.12 723.256 451.05C720.347 447.981 716.542 446.446 711.842 446.446C706.598 446.446 702.329 448.364 699.036 452.201C695.775 456.038 694.144 461.33 694.144 468.076C694.144 474.631 695.679 479.699 698.748 483.28C701.818 486.861 705.719 488.651 710.451 488.651C715.726 488.651 719.915 486.973 723.016 483.615C726.118 480.258 727.669 476.15 727.669 471.29ZM786.277 442.993L761.817 503.615C760.314 507.356 758.459 510.218 756.253 512.2C754.047 514.182 751.361 515.174 748.196 515.174C746.853 515.174 745.574 515.03 744.359 514.742C743.144 514.486 741.961 514.007 740.81 513.303L743.016 508.939C743.815 509.418 744.631 509.786 745.462 510.042C746.325 510.298 747.205 510.425 748.1 510.425C749.954 510.425 751.601 509.818 753.04 508.603C754.511 507.388 755.838 505.374 757.021 502.56L761.529 491.769L742.824 442.993H748.34L762.968 481.745C763.256 482.512 763.479 483.152 763.639 483.663C763.799 484.143 763.943 484.639 764.071 485.15H764.311C764.471 484.639 764.646 484.143 764.838 483.663C765.03 483.152 765.254 482.592 765.51 481.985L780.905 442.993H786.277ZM816.108 481.026L820.904 478.292C822.855 481.873 825.157 484.431 827.811 485.966C830.496 487.5 833.678 488.268 837.355 488.268C841.927 488.268 845.636 487.069 848.482 484.671C851.359 482.273 852.798 478.835 852.798 474.359C852.798 470.522 851.647 467.437 849.345 465.103C847.043 462.737 843.366 460.802 838.314 459.299C831.951 457.413 827.251 454.951 824.214 451.913C821.208 448.844 819.705 444.959 819.705 440.259C819.705 434.791 821.528 430.411 825.173 427.118C828.818 423.824 833.438 422.178 839.033 422.178C843.574 422.178 847.427 423.217 850.592 425.295C853.757 427.374 856.155 429.931 857.786 432.969L853.038 435.511C851.823 433.049 849.984 431.051 847.522 429.516C845.06 427.949 842.215 427.166 838.985 427.166C834.957 427.166 831.615 428.285 828.962 430.523C826.34 432.761 825.029 435.799 825.029 439.636C825.029 443.153 826.18 446.062 828.482 448.364C830.784 450.634 834.557 452.569 839.801 454.168C846.291 456.15 850.976 458.692 853.853 461.793C856.763 464.863 858.218 468.86 858.218 473.784C858.218 479.571 856.315 484.271 852.51 487.884C848.737 491.497 843.702 493.304 837.403 493.304C832.575 493.304 828.386 492.248 824.837 490.138C821.288 488.028 818.378 484.99 816.108 481.026ZM891.167 493.304C884.005 493.304 878.249 490.985 873.901 486.349C869.552 481.681 867.378 475.526 867.378 467.884C867.378 460.115 869.696 453.832 874.332 449.036C879.001 444.208 884.756 441.794 891.598 441.794C898.633 441.794 904.276 444.208 908.528 449.036C912.813 453.832 914.955 460.019 914.955 467.597C914.955 475.142 912.781 481.313 908.432 486.109C904.084 490.905 898.329 493.304 891.167 493.304ZM891.358 488.651C896.986 488.651 901.446 486.733 904.74 482.896C908.065 479.027 909.727 473.911 909.727 467.549C909.727 461.282 908.081 456.214 904.787 452.345C901.494 448.444 897.066 446.494 891.502 446.494C885.939 446.494 881.383 448.508 877.834 452.537C874.316 456.534 872.558 461.665 872.558 467.932C872.558 474.231 874.268 479.267 877.69 483.04C881.143 486.781 885.699 488.651 891.358 488.651ZM926.226 492.104V419.396H931.262V492.104H926.226ZM983.395 492.057H978.359V484.095H978.167C976.345 487.133 974.043 489.419 971.261 490.953C968.479 492.488 965.538 493.256 962.436 493.256C956.841 493.256 952.54 491.561 949.535 488.172C946.561 484.782 945.074 479.875 945.074 473.448V442.945H950.062V472.872C950.062 477.988 951.165 481.889 953.372 484.575C955.578 487.26 958.791 488.603 963.012 488.603C967.36 488.603 971.005 486.925 973.947 483.567C976.888 480.21 978.359 476.07 978.359 471.146V442.945H983.395V492.057ZM1020.66 489.563C1019.35 490.778 1017.94 491.657 1016.44 492.2C1014.97 492.776 1013.23 493.064 1011.21 493.064C1007.79 493.064 1005.14 492.073 1003.25 490.09C1001.4 488.108 1000.47 485.278 1000.47 481.601V447.501H991.692V442.993H1000.47V430.427L1005.46 429.612V442.993H1018.74V447.501H1005.46V481.217C1005.46 483.647 1006 485.502 1007.09 486.781C1008.21 488.028 1009.77 488.651 1011.79 488.651C1013 488.651 1014.09 488.459 1015.05 488.076C1016.04 487.66 1017.02 486.989 1017.97 486.061L1020.66 489.563ZM1032.08 431.386C1030.8 431.386 1029.76 430.987 1028.96 430.187C1028.16 429.388 1027.76 428.365 1027.76 427.118C1027.76 425.935 1028.16 424.944 1028.96 424.144C1029.76 423.345 1030.8 422.945 1032.08 422.945C1033.35 422.945 1034.39 423.345 1035.19 424.144C1035.99 424.944 1036.39 425.935 1036.39 427.118C1036.39 428.365 1035.99 429.388 1035.19 430.187C1034.43 430.987 1033.39 431.386 1032.08 431.386ZM1034.62 492.104H1029.58V442.993H1034.62V492.104ZM1069.77 493.304C1062.61 493.304 1056.85 490.985 1052.51 486.349C1048.16 481.681 1045.98 475.526 1045.98 467.884C1045.98 460.115 1048.3 453.832 1052.94 449.036C1057.61 444.208 1063.36 441.794 1070.2 441.794C1077.24 441.794 1082.88 444.208 1087.13 449.036C1091.42 453.832 1093.56 460.019 1093.56 467.597C1093.56 475.142 1091.39 481.313 1087.04 486.109C1082.69 490.905 1076.93 493.304 1069.77 493.304ZM1069.96 488.651C1075.59 488.651 1080.05 486.733 1083.35 482.896C1086.67 479.027 1088.33 473.911 1088.33 467.549C1088.33 461.282 1086.69 456.214 1083.39 452.345C1080.1 448.444 1075.67 446.494 1070.11 446.494C1064.54 446.494 1059.99 448.508 1056.44 452.537C1052.92 456.534 1051.16 461.665 1051.16 467.932C1051.16 474.231 1052.87 479.267 1056.3 483.04C1059.75 486.781 1064.3 488.651 1069.96 488.651ZM1143.15 492.104H1138.16V462.369C1138.16 457.061 1137.13 453.08 1135.05 450.427C1132.97 447.773 1129.85 446.446 1125.69 446.446C1121.06 446.446 1117.25 448.125 1114.28 451.482C1111.34 454.839 1109.87 458.996 1109.87 463.952V492.104H1104.83V442.993H1109.87V450.954H1110.06C1111.95 447.885 1114.26 445.599 1117.01 444.096C1119.8 442.561 1122.91 441.794 1126.37 441.794C1131.96 441.794 1136.15 443.536 1138.93 447.021C1141.75 450.475 1143.15 455.383 1143.15 461.745V492.104ZM1154.42 483.472L1158.93 481.265C1160.08 483.695 1161.73 485.55 1163.87 486.829C1166.05 488.108 1168.67 488.747 1171.74 488.747C1174.93 488.747 1177.49 487.852 1179.41 486.061C1181.36 484.271 1182.34 482.001 1182.34 479.251C1182.34 476.853 1181.58 474.887 1180.08 473.352C1178.61 471.785 1175.54 470.25 1170.87 468.748C1165.63 467.117 1162.02 465.247 1160.03 463.136C1158.05 460.994 1157.06 458.372 1157.06 455.271C1157.06 451.082 1158.5 447.789 1161.38 445.391C1164.29 442.993 1167.92 441.794 1172.26 441.794C1175.27 441.794 1178.08 442.465 1180.71 443.808C1183.33 445.119 1185.42 447.037 1186.99 449.563L1182.82 451.818C1181.63 449.995 1180.07 448.62 1178.12 447.693C1176.2 446.766 1174.18 446.302 1172.07 446.302C1168.97 446.302 1166.51 447.053 1164.69 448.556C1162.86 450.059 1161.95 452.105 1161.95 454.695C1161.95 456.869 1162.66 458.628 1164.06 459.971C1165.5 461.314 1168.3 462.641 1172.46 463.952C1177.86 465.646 1181.7 467.549 1183.97 469.659C1186.24 471.769 1187.37 474.823 1187.37 478.819C1187.37 483.168 1185.87 486.669 1182.86 489.323C1179.89 491.977 1176.17 493.304 1171.69 493.304C1167.53 493.304 1163.98 492.392 1161.04 490.57C1158.1 488.715 1155.89 486.349 1154.42 483.472Z" fill="#212922"/>
<defs>
<linearGradient id="paint0_linear_3418_4632" x1="210.689" y1="140.748" x2="311.148" y2="-3.10157" gradientUnits="userSpaceOnUse">
<stop stop-color="#028090"/>
<stop offset="0.07" stop-color="#087C91"/>
<stop offset="0.17" stop-color="#1B7295"/>
<stop offset="0.29" stop-color="#3A619B"/>
<stop offset="0.43" stop-color="#664AA4"/>
<stop offset="0.57" stop-color="#9C2DAF"/>
<stop offset="0.6" stop-color="#A927B2"/>
<stop offset="0.66" stop-color="#AD29A9"/>
<stop offset="0.75" stop-color="#BB3193"/>
<stop offset="0.86" stop-color="#D13F6E"/>
<stop offset="0.99" stop-color="#F0513B"/>
<stop offset="1" stop-color="#F25239"/>
</linearGradient>
</defs>
</svg>
